<svg width="100" height="100" viewBox="0 0 100 100" fill="none" xmlns="http://www.w3.org/2000/svg">
<path fill-rule="evenodd" clip-rule="evenodd" d="M46.1832 13.5168C48.3496 12.8216 50.6648 12.7308 52.879 13.2543L53.8165 13.5168L81.0415 22.2502C81.8332 22.5127 82.5457 23.0043 83.0665 23.6918L83.3582 24.1293L94.8165 43.9085C95.1063 44.4081 95.2891 44.9625 95.3533 45.5366C95.4174 46.1106 95.3615 46.6917 95.1892 47.243C95.0168 47.7942 94.7316 48.3036 94.3519 48.7388C93.9721 49.174 93.506 49.5255 92.9832 49.771L92.4832 49.9668L83.9373 52.7085V70.7502C83.9367 72.3996 83.4466 74.0118 82.5291 75.3826C81.6116 76.7533 80.3079 77.8209 78.7832 78.4502L78.1498 78.6835L53.8165 86.4835C51.65 87.1788 49.3349 87.2695 47.1207 86.746L46.1832 86.4877L21.8498 78.6835C20.2789 78.179 18.893 77.2195 17.8679 75.9266C16.8428 74.6337 16.2245 73.0656 16.0915 71.421L16.0623 70.746V52.7085L7.51651 49.9668C6.96692 49.7905 6.45998 49.5018 6.02781 49.1192C5.59564 48.7366 5.24767 48.2684 5.00597 47.7443C4.76427 47.2201 4.6341 46.6515 4.62372 46.0744C4.61334 45.4973 4.72298 44.9243 4.94567 44.3918L5.18317 43.9085L16.6415 24.1293C17.071 23.3883 17.7184 22.7976 18.4957 22.4377L18.954 22.2502L46.1832 13.5168ZM54.1665 51.271V77.621L75.604 70.746V55.3835L62.729 59.5127C61.9033 59.7775 61.0156 59.7781 60.1895 59.5145C59.3635 59.2508 58.6403 58.736 58.1207 58.0418L57.854 57.6335L54.1665 51.271ZM45.8332 51.271L42.1457 57.6335C41.6692 58.4557 40.926 59.0903 40.0393 59.4321C39.1526 59.7739 38.1757 59.8023 37.2707 59.5127L24.3957 55.3835V70.746L45.8332 77.6252V51.271ZM22.1665 31.2085L14.9873 43.6127L36.6165 50.5543L43.804 38.1502L22.1665 31.2085ZM77.8332 31.2085L56.1957 38.1502L63.379 50.5543L85.0123 43.6127L77.8332 31.2085ZM51.2707 21.4502C50.6111 21.2395 49.9094 21.1965 49.229 21.3252L48.729 21.4502L33.8748 26.2168L49.9998 31.3877L66.1248 26.2168L51.2707 21.4502Z" fill="#A1A1AA"/>
</svg>
