<svg width="100" height="100" viewBox="0 0 100 100" fill="none" xmlns="http://www.w3.org/2000/svg">
<path d="M45.8382 41.6665H54.1715V62.4998H45.8382V41.6665ZM45.834 66.6665H54.1673V74.9999H45.834V66.6665Z" fill="#E43131"/>
<path d="M57.3661 17.5002C55.9161 14.771 53.0911 13.0752 49.9994 13.0752C46.9077 13.0752 44.0827 14.771 42.6327 17.5044L12.0577 75.2669C11.3809 76.5359 11.0457 77.959 11.0852 79.3967C11.1246 80.8343 11.5373 82.237 12.2827 83.4669C13.0177 84.703 14.063 85.7254 15.315 86.4329C16.567 87.1404 17.9822 87.5083 19.4202 87.5003H80.5786C83.5286 87.5003 86.1994 85.9919 87.7202 83.4669C88.4656 82.237 88.8784 80.8343 88.9178 79.3967C88.9573 77.959 88.6221 76.5359 87.9452 75.2669L57.3661 17.5002ZM19.4202 79.1669L49.9994 21.4044L80.5994 79.1669H19.4202Z" fill="#E43131"/>
</svg>
